# xmcd CD database file
#
# Track frame offsets:
#	150
#	26516
#	46065
#	65396
#	100417
#	127822
#	143596
#	169628
#	187097
#	205917
#	233294
#	265855
#	281213
#
# Disc length: 4031 seconds
#
# Revision: 0
# Processed by: cddbd v1.5.2PL0 Copyright (c) Steve Scherf et al.
# Submitted via: CDex 1.51
#
DISCID=ae0fbd0d
DTITLE=Various Artist - Jazz 1 P.M. [CD 2)
DYEAR=2009
DGENRE=Jazz
TTITLE0=Lionel Hampton - Hello Dolly
TTITLE1=Carmen McRea - Underneath The Apple Three
TTITLE2=Bill Dogget - I Wish You Love
TTITLE3=Teddy Wilson - The Man I Love
TTITLE4=Woody Herman - Body And Soul
TTITLE5=Earl Hines - One Night In trinidad
TTITLE6=Cheryl Mingus and Lion Hampton - Volvare
TTITLE7=Duke Ellington - Creole Love Call
TTITLE8=Earl Fatha Hines - If I Had You
TTITLE9=Buddy Rich - My Funny Valentine
TTITLE10=Gerry Mulligan - Song For Johnny Hodges
TTITLE11=Chet Baker - Newer Had This Feeling Before
TTITLE12=Carmen McRea - Send In The Clowns
EXTD=YEAR: 2009
EXTT0=
EXTT1=
EXTT2=
EXTT3=
EXTT4=
EXTT5=
EXTT6=
EXTT7=
EXTT8=
EXTT9=
EXTT10=
EXTT11=
EXTT12=
PLAYORDER=
